<svg id="Layer_1" data-name="Layer 1" xmlns="http://www.w3.org/2000/svg" xmlns:xlink="http://www.w3.org/1999/xlink" viewBox="0 0 236.47 212.42"><defs><style>.cls-1{fill-rule:evenodd;fill:url(#linear-gradient);}</style><linearGradient id="linear-gradient" x1="681.93" y1="489.79" x2="681.93" y2="277.37" gradientUnits="userSpaceOnUse"><stop offset="0" stop-color="#9106fe"/><stop offset="1" stop-color="#3ccae2"/></linearGradient></defs><title>hs-webjs logo</title><path class="cls-1" d="M799.67,357.31c-1.12-14.94-16.77-29-37.6-40.91-21.31-12.23-56.64-33-56.64-33S699,278.05,682,278.05h-.13c-17,0-23.43,5.31-23.43,5.31s-35.33,20.81-56.65,33c-20.83,12-36.48,26-37.6,40.91-1.09,14.5,0,25.25,0,66.08,0,47.46,29.72,48,48.27,51.56,36.25,6.95,40.94,15.48,69.38,15.52H682c28.45,0,33.13-8.57,69.39-15.52,18.54-3.55,48.26-4.1,48.26-51.56C799.67,382.56,800.76,371.81,799.67,357.31Zm-23.55,58.26c0,38-23.77,38.4-38.61,41.24l-2.07.41a8.28,8.28,0,0,0-1.79.21c-9.82,2.07-27.12,2.55-27.12-12.24V383.75h0a24.59,24.59,0,0,0-49.17,0h0v61.44c0,14.79-17.31,14.31-27.12,12.24a8.36,8.36,0,0,0-1.8-.21l-2.07-.41c-14.83-2.84-38.61-3.28-38.61-41.24,0-32.67-.87-41.27,0-52.87.89-11.95,13.42-23.17,30.08-32.73,17.05-9.78,45.32-26.43,45.32-26.43s5.15-4.25,18.74-4.25H682c13.59,0,18.75,4.25,18.75,4.25S729,320.19,746,330c16.66,9.56,29.19,20.78,30.08,32.73C777,374.3,776.12,382.9,776.12,415.57Z" transform="translate(-563.69 -278.05)"/></svg>