<svg height="0" width="0">
            <defs>
                <clipPath id="svgPath">
                     <path id="base_expanded" data-name="base expanded" class="cls-1" d="M12554.4,1985.04c-1.6-21.87-24.6-42.4-55.1-59.89-31.2-17.91-82.9-48.38-82.9-48.38s-9.4-7.77-34.3-7.77a0.182,0.182,0,0,1-.2,0c-24.9,0-34.3,7.77-34.3,7.77s-51.7,30.47-82.9,48.38c-30.5,17.49-53.5,38.02-55.1,59.89-1.6,21.23,0,36.97,0,96.76,0,69.47,43.5,70.28,70.7,75.48,53.1,10.18,59.9,22.68,101.6,22.72h0.2c41.7-.04,48.5-12.54,101.6-22.72,27.2-5.2,70.7-6.01,70.7-75.48C12554.4,2022.01,12556,2006.27,12554.4,1985.04Z"/>
                </clipPath>
            </defs>
        </svg>