<svg xmlns="http://www.w3.org/2000/svg" xmlns:xlink="http://www.w3.org/1999/xlink" width="311" height="266" viewBox="0 0 311 266">
  <defs>
    <style>
      .cls-1 {
        fill: #fff;
        fill-rule: evenodd;
        filter: url(#filter);
      }
    </style>
    <filter id="filter" x="12227" y="1885" width="311" height="266" filterUnits="userSpaceOnUse">
      <feOffset result="offset" in="SourceAlpha"/>
      <feGaussianBlur result="blur" stdDeviation="3.873"/>
      <feFlood result="flood" flood-color="#1a1b1c" flood-opacity="0.1"/>
      <feComposite result="composite" operator="in" in2="blur"/>
      <feBlend result="blend" in="SourceGraphic"/>
    </filter>
  </defs>
  <path id="top_expanded" data-name="top expanded" class="cls-1" d="M12519.7,1993.73c-1.3-17.48-19.6-33.89-44-47.87-24.9-14.31-66.2-38.66-66.2-38.66s-7.6-6.2-27.4-6.2a0.158,0.158,0,0,0-.1.01,0.158,0.158,0,0,1-.1-0.01c-19.9,0-27.4,6.2-27.4,6.2s-41.3,24.35-66.3,38.66c-24.3,13.98-42.6,30.39-44,47.87-1.2,16.96,0,29.54,0,77.32,0,55.52,34.8,56.16,56.5,60.32,1,0.2,1.9.4,2.9,0.6h0a11.164,11.164,0,0,1,2.8.31c14.3,3.01,39.6,3.72,39.6-17.9v-89.86h0a35.961,35.961,0,0,1,71.9,0h0v89.86c0,21.62,25.3,20.91,39.7,17.9a10.914,10.914,0,0,1,2.7-.31h0c1-.2,1.9-0.4,2.9-0.6,21.7-4.16,56.5-4.8,56.5-60.32C12519.7,2023.27,12521,2010.69,12519.7,1993.73Z" transform="translate(-12227 -1885)"/>
</svg>
